<?xml version="1.0" encoding="utf-8"?>
<!-- Generator: Adobe Illustrator 26.1.0, SVG Export Plug-In . SVG Version: 6.00 Build 0)  -->
<svg version="1.1" id="Layer_1" xmlns="http://www.w3.org/2000/svg" xmlns:xlink="http://www.w3.org/1999/xlink" x="0px" y="0px"
	 viewBox="0 0 55 40" style="enable-background:new 0 0 55 40;" xml:space="preserve">
<style type="text/css">
	.st0{fill:#2C3488;}
	.st1{fill:#333333;}
</style>
<g>
	<g>
		<g>
			<path class="st0" d="M27.94,39.97c-2.4,0-4.7-0.5-6.9-1.4c-2.1-0.9-4-2.2-5.6-3.8c-1.7-1.6-2.9-3.5-3.8-5.6
				c-0.9-2.2-1.4-4.5-1.4-6.9s0.5-4.7,1.4-6.9c0.9-2.1,2.2-4,3.8-5.6c1.6-1.6,3.5-2.9,5.6-3.8c2.2-0.9,4.5-1.4,6.9-1.4
				s4.7,0.5,6.9,1.4c2.1,0.9,4,2.2,5.6,3.8s2.9,3.5,3.8,5.6c0.9,2.2,1.4,4.5,1.4,6.9s-0.5,4.7-1.4,6.9c-0.9,2.1-2.2,4-3.8,5.6
				c-1.6,1.6-3.5,2.9-5.6,3.8C32.64,39.58,30.34,39.97,27.94,39.97z M27.94,5.08c-9.5,0-17.3,7.7-17.3,17.3s7.7,17.3,17.3,17.3
				s17.3-7.7,17.3-17.3S37.44,5.08,27.94,5.08z"/>
		</g>
		<g>
			<path class="st0" d="M21.54,32.58l0.7,0.3v0.9l1.3,0.6l0.6-0.6l0.7,0.3l-2.7,2.7l-0.7-0.3L21.54,32.58z M22.14,34.38l-0.1,1.4
				l1-1L22.14,34.38z"/>
			<path class="st0" d="M19.74,34.77l-0.4,0.5l-0.6-0.4l0.4-0.5L19.74,34.77z M21.34,32.27l-1.5,2.1l-0.6-0.4l1.5-2.1L21.34,32.27z"
				/>
			<path class="st0" d="M19.84,31.08l0.5,0.5l-1.7,1.9l-0.5-0.4l0.2-0.3c-0.2,0.1-0.3,0.1-0.4,0.1s-0.2-0.1-0.3-0.1
				c-0.1-0.1-0.2-0.2-0.2-0.4l0.6-0.3c0,0.1,0.1,0.2,0.2,0.3s0.1,0.1,0.2,0.1s0.2,0,0.3-0.1c0.1-0.1,0.3-0.3,0.6-0.6L19.84,31.08z"
				/>
			<path class="st0" d="M19.04,30.38l-2.9,2.1l-0.4-0.6l1.1-2.6l-2,1.4l-0.4-0.5l2.9-2.1l0.4,0.6l-1,2.5l1.9-1.4L19.04,30.38z"/>
			<path class="st0" d="M15.84,26.48l-0.1-0.7c0.3,0,0.5,0.1,0.7,0.2s0.3,0.3,0.4,0.6c0.2,0.4,0.1,0.8-0.1,1.1
				c-0.2,0.2-0.4,0.4-0.7,0.6c-0.4,0.2-0.8,0.2-1.1,0c-0.3-0.1-0.5-0.3-0.6-0.7c-0.1-0.4-0.1-0.7,0-1c0.2-0.3,0.5-0.5,1-0.7l0.6,1.6
				c0.2-0.1,0.3-0.2,0.4-0.3c0.1-0.1,0.1-0.3,0-0.4c0-0.1-0.1-0.2-0.2-0.2C16.04,26.48,15.94,26.48,15.84,26.48z M15.14,26.68
				c-0.2,0.1-0.3,0.2-0.4,0.3c-0.1,0.1-0.1,0.3,0,0.4s0.1,0.2,0.3,0.3c0.1,0.1,0.3,0,0.5,0L15.14,26.68z"/>
			<path class="st0" d="M13.54,24.38l0.5-0.1l0.1,0.5l1-0.2c0.2,0,0.3-0.1,0.4-0.1c0,0,0.1,0,0.1-0.1v-0.1c0-0.1-0.1-0.1-0.1-0.3
				l0.5-0.2c0.1,0.1,0.2,0.3,0.2,0.5c0,0.1,0,0.2,0,0.3c0,0.1-0.1,0.2-0.1,0.2c-0.1,0.1-0.1,0.1-0.2,0.1s-0.2,0.1-0.5,0.1l-1.1,0.2
				l0.1,0.3l-0.5,0.1l-0.1-0.3l-0.5,0.1l-0.5-0.6l0.9-0.2L13.54,24.38z"/>
			<path class="st0" d="M15.94,22.28l-3.6-0.1v-0.7l3.6,0.1V22.28z"/>
			<path class="st0" d="M16.44,18.68l-0.1,0.7l-1.3-0.3c-0.3-0.1-0.5-0.1-0.5-0.1c-0.1,0-0.2,0-0.2,0.1c-0.1,0.1-0.1,0.1-0.1,0.2
				s0,0.2,0,0.3c0,0.1,0.1,0.2,0.2,0.2c0.1,0.1,0.3,0.1,0.6,0.2l1.2,0.2l-0.1,0.7l-2.5-0.5l0.1-0.6l0.4,0.1
				c-0.2-0.3-0.3-0.6-0.3-0.9c0-0.1,0.1-0.3,0.2-0.4s0.2-0.2,0.3-0.2c0.1,0,0.2-0.1,0.3-0.1c0.1,0,0.3,0,0.5,0.1L16.44,18.68z"/>
			<path class="st0" d="M14.14,17.48l0.1-0.4l-0.2-0.1c-0.2-0.1-0.3-0.2-0.4-0.3c-0.1-0.1-0.1-0.2-0.1-0.3c0-0.1,0-0.3,0.1-0.5
				c0.1-0.2,0.2-0.3,0.3-0.5l0.4,0.3c-0.1,0.1-0.1,0.2-0.2,0.3c0,0.1,0,0.2,0,0.2c0,0.1,0.1,0.1,0.2,0.2l0.2,0.1l0.2-0.5l0.5,0.2
				l-0.2,0.5l1.9,0.8l-0.3,0.6l-1.9-0.8l-0.1,0.4L14.14,17.48z"/>
			<path class="st0" d="M16.04,16.18c-0.2-0.1-0.3-0.3-0.5-0.5c-0.1-0.2-0.2-0.4-0.1-0.7c0-0.2,0.1-0.5,0.2-0.7
				c0.2-0.3,0.5-0.5,0.8-0.6c0.4-0.1,0.7,0,1,0.2s0.5,0.5,0.6,0.9s0,0.7-0.2,1c-0.1,0.2-0.3,0.4-0.5,0.5s-0.4,0.2-0.7,0.2
				C16.54,16.38,16.34,16.28,16.04,16.18z M16.44,15.57c0.2,0.1,0.4,0.2,0.6,0.2s0.3-0.1,0.4-0.3c0.1-0.2,0.1-0.3,0.1-0.5
				s-0.2-0.3-0.4-0.5c-0.2-0.1-0.4-0.2-0.6-0.2s-0.3,0.1-0.4,0.3c-0.1,0.2-0.1,0.3-0.1,0.5C16.14,15.28,16.24,15.47,16.44,15.57z"/>
			<path class="st0" d="M19.34,13.88l-0.5,0.5l-1.9-1.8l0.4-0.5l0.3,0.3c0-0.2-0.1-0.4,0-0.5c0-0.1,0.1-0.2,0.1-0.3
				c0.1-0.1,0.2-0.2,0.4-0.2l0.3,0.6c-0.1,0-0.2,0.1-0.3,0.2c-0.1,0.1-0.1,0.1-0.1,0.2c0,0.1,0,0.2,0.1,0.3s0.3,0.3,0.6,0.6
				L19.34,13.88z"/>
			<path class="st0" d="M18.64,10.88l0.5-0.3l0.2,0.3c0-0.4,0.2-0.6,0.5-0.8c0.1-0.1,0.3-0.1,0.4-0.1s0.3,0,0.4,0.1
				c0-0.2,0.1-0.3,0.2-0.5c0.1-0.1,0.2-0.2,0.3-0.3c0.2-0.1,0.4-0.1,0.5-0.1c0.2,0,0.3,0,0.4,0.1s0.2,0.2,0.3,0.4l0.9,1.4l-0.6,0.4
				l-0.7-1.3c-0.1-0.2-0.2-0.3-0.3-0.4c-0.1-0.1-0.2,0-0.3,0c-0.1,0.1-0.1,0.1-0.2,0.2c0,0.1,0,0.2,0,0.3s0.1,0.3,0.2,0.5l0.7,1.1
				l-0.6,0.4l-0.7-1.2c-0.1-0.2-0.2-0.3-0.3-0.4c-0.1,0-0.1-0.1-0.2-0.1s-0.1,0-0.2,0.1s-0.2,0.1-0.2,0.2c0,0.1-0.1,0.2,0,0.3
				c0,0.1,0.1,0.3,0.2,0.5l0.7,1.1l-0.6,0.4L18.64,10.88z"/>
			<path class="st0" d="M23.74,9.18h-0.6c0-0.3,0.1-0.5,0.2-0.6c0.1-0.2,0.4-0.3,0.7-0.4c0.3-0.1,0.5-0.1,0.7-0.1s0.3,0.1,0.4,0.2
				c0.1,0.1,0.2,0.3,0.3,0.6l0.2,0.8c0.1,0.2,0.1,0.4,0.2,0.5c0,0.1,0.1,0.2,0.2,0.3l-0.7,0.2c0,0-0.1-0.1-0.1-0.2v-0.1
				c-0.1,0.1-0.2,0.3-0.3,0.3c-0.1,0.1-0.2,0.2-0.4,0.2c-0.3,0.1-0.5,0.1-0.7,0s-0.3-0.3-0.4-0.5c0-0.1,0-0.3,0-0.4
				c0-0.1,0.1-0.2,0.2-0.3s0.3-0.2,0.5-0.3c0.3-0.1,0.5-0.3,0.6-0.3v-0.1c0-0.1-0.1-0.2-0.2-0.2s-0.2,0-0.4,0
				c-0.1,0-0.2,0.1-0.3,0.1C23.84,8.98,23.74,8.98,23.74,9.18z M24.84,9.48c-0.1,0.1-0.2,0.1-0.4,0.2c-0.2,0.1-0.3,0.2-0.3,0.2
				c-0.1,0.1-0.1,0.2-0.1,0.3s0.1,0.2,0.2,0.2s0.2,0.1,0.3,0c0.1,0,0.2-0.1,0.3-0.2c0.1-0.1,0.1-0.2,0.1-0.3S24.94,9.68,24.84,9.48
				L24.84,9.48z"/>
			<path class="st0" d="M27.24,7.78l0.1,0.5h-0.5l0.1,1c0,0.2,0,0.3,0,0.4c0,0,0,0.1,0.1,0.1h0.1c0.1,0,0.2,0,0.3-0.1l0.1,0.5
				c-0.2,0.1-0.3,0.1-0.5,0.2c-0.1,0-0.2,0-0.3,0c-0.1,0-0.2-0.1-0.2-0.1c-0.1-0.1-0.1-0.1-0.1-0.3c0-0.1,0-0.2-0.1-0.5l-0.1-1.1
				h-0.3l-0.1-0.5h0.3v-0.5l0.6-0.5l0.1,0.9L27.24,7.78z"/>
			<path class="st0" d="M27.84,10.28l0.1-2.6h0.7l-0.1,2.7L27.84,10.28z M27.94,7.38v-0.6h0.7v0.6C28.64,7.38,27.94,7.38,27.94,7.38
				z"/>
			<path class="st0" d="M29.24,8.98c0-0.2,0.1-0.4,0.3-0.6c0.2-0.2,0.3-0.3,0.6-0.4c0.2-0.1,0.5-0.1,0.7,0c0.4,0.1,0.7,0.3,0.9,0.6
				c0.2,0.3,0.3,0.6,0.2,1c-0.1,0.4-0.3,0.7-0.6,0.9c-0.3,0.2-0.6,0.3-1,0.2c-0.2,0-0.4-0.1-0.6-0.3c-0.2-0.1-0.3-0.3-0.4-0.6
				C29.14,9.57,29.14,9.28,29.24,8.98z M29.94,9.18c-0.1,0.3,0,0.5,0.1,0.6c0.1,0.2,0.2,0.3,0.4,0.3c0.2,0,0.3,0,0.5-0.1
				c0.1-0.1,0.2-0.3,0.3-0.5c0.1-0.2,0-0.5-0.1-0.6c-0.1-0.2-0.2-0.3-0.4-0.3c-0.2,0-0.3,0-0.5,0.1
				C30.04,8.78,29.94,8.88,29.94,9.18z"/>
			<path class="st0" d="M34.04,11.98l-0.6-0.3l0.6-1.2c0.1-0.3,0.2-0.4,0.2-0.5s0-0.2,0-0.2c0-0.1-0.1-0.1-0.2-0.2
				c-0.1-0.1-0.2-0.1-0.3,0c-0.1,0-0.2,0.1-0.3,0.2c-0.1,0.1-0.2,0.3-0.3,0.5l-0.5,1.1l-0.6-0.3l1.1-2.4l0.6,0.3l-0.2,0.3
				c0.3-0.2,0.6-0.2,1,0c0.1,0.1,0.3,0.1,0.3,0.2c0.1,0.1,0.1,0.2,0.2,0.3c0,0.1,0,0.2,0,0.3s-0.1,0.3-0.2,0.4L34.04,11.98z"/>
			<path class="st0" d="M36.14,13.57l2.1-2.1l-0.8-0.8l0.4-0.4l2,2l-0.4,0.4l-0.8-0.7l-2.1,2.1L36.14,13.57z"/>
			<path class="st0" d="M38.84,15.57l0.3,0.6c-0.3,0.1-0.5,0.1-0.7,0s-0.4-0.2-0.6-0.5c-0.3-0.4-0.3-0.7-0.2-1.1
				c0.1-0.3,0.3-0.5,0.6-0.7c0.4-0.2,0.7-0.3,1-0.3c0.3,0.1,0.6,0.2,0.8,0.5c0.2,0.3,0.3,0.6,0.2,1c-0.1,0.3-0.4,0.6-0.8,0.9l-1-1.4
				c-0.2,0.1-0.3,0.3-0.3,0.4c0,0.2,0,0.3,0.1,0.4s0.1,0.1,0.2,0.2S38.74,15.68,38.84,15.57z M39.44,15.28c0.2-0.1,0.3-0.2,0.3-0.4
				c0-0.1,0-0.3-0.1-0.4s-0.2-0.2-0.3-0.2c-0.1,0-0.3,0-0.4,0.1L39.44,15.28z"/>
			<path class="st0" d="M41.24,18.48l-0.4-0.6c0.1-0.1,0.2-0.2,0.2-0.3c0-0.1,0-0.2,0-0.3c-0.1-0.2-0.2-0.3-0.3-0.3
				c-0.1-0.1-0.3,0-0.6,0.1c-0.3,0.1-0.5,0.2-0.6,0.4c-0.1,0.1-0.1,0.3,0,0.5c0,0.1,0.1,0.2,0.2,0.3c0.1,0.1,0.2,0.1,0.4,0l0.1,0.7
				c-0.3,0-0.6,0-0.8-0.1c-0.2-0.1-0.4-0.3-0.5-0.7c-0.1-0.4-0.1-0.7,0-1s0.4-0.5,0.8-0.7s0.8-0.2,1.1,0c0.3,0.1,0.5,0.4,0.7,0.7
				c0.1,0.3,0.1,0.6,0.1,0.8C41.64,18.08,41.44,18.28,41.24,18.48z"/>
			<path class="st0" d="M43.24,19.58l-1.3,0.2c0.3,0.2,0.5,0.4,0.5,0.7c0,0.2,0,0.3,0,0.4s-0.1,0.2-0.2,0.3
				c-0.1,0.1-0.2,0.1-0.3,0.2c-0.1,0-0.3,0.1-0.5,0.1l-1.5,0.2l-0.1-0.7l1.4-0.2c0.3,0,0.4-0.1,0.5-0.1s0.1-0.1,0.2-0.2
				c0-0.1,0-0.2,0-0.3c0-0.1-0.1-0.2-0.1-0.3s-0.2-0.1-0.3-0.2c-0.1,0-0.3,0-0.5,0l-1.3,0.2l-0.1-0.7l3.5-0.5L43.24,19.58z"/>
			<path class="st0" d="M39.74,24.58l0.1-0.7l1.3,0.1c0.3,0,0.5,0,0.5,0c0.1,0,0.2-0.1,0.2-0.1c0.1-0.1,0.1-0.1,0.1-0.2
				s0-0.2-0.1-0.3c-0.1-0.1-0.1-0.2-0.2-0.2s-0.3-0.1-0.6-0.1l-1.2-0.1l0.1-0.7l2.6,0.2l-0.1,0.6h-0.4c0.3,0.3,0.4,0.6,0.4,0.9
				c0,0.2-0.1,0.3-0.1,0.4c-0.1,0.1-0.1,0.2-0.2,0.3c-0.1,0.1-0.2,0.1-0.3,0.1c-0.1,0-0.3,0-0.5,0L39.74,24.58z"/>
			<path class="st0" d="M40.94,25.38c0.2,0.1,0.4,0.2,0.6,0.4c0.2,0.2,0.3,0.4,0.3,0.6s0,0.5-0.1,0.7c-0.1,0.4-0.4,0.6-0.7,0.8
				c-0.3,0.2-0.7,0.2-1,0c-0.4-0.1-0.6-0.4-0.8-0.7c-0.2-0.3-0.2-0.7-0.1-1c0.1-0.2,0.2-0.4,0.4-0.6c0.2-0.2,0.4-0.3,0.6-0.3
				S40.64,25.28,40.94,25.38z M40.64,26.08c-0.2-0.1-0.4-0.1-0.6,0s-0.3,0.2-0.3,0.4c-0.1,0.2,0,0.3,0,0.5c0.1,0.2,0.3,0.3,0.5,0.4
				s0.4,0.1,0.6,0s0.3-0.2,0.3-0.4c0.1-0.2,0-0.3,0-0.5C41.04,26.28,40.94,26.18,40.64,26.08z"/>
			<path class="st0" d="M38.54,27.78l3.1,1.7l-0.3,0.6l-3.1-1.7L38.54,27.78z"/>
			<path class="st0" d="M39.14,29.68c0.2,0.1,0.3,0.3,0.4,0.5s0.1,0.4,0.1,0.7c0,0.2-0.1,0.4-0.3,0.6c-0.2,0.3-0.5,0.5-0.9,0.5
				s-0.7-0.1-1-0.3s-0.5-0.6-0.5-0.9c0-0.4,0.1-0.7,0.3-1c0.1-0.2,0.3-0.3,0.6-0.4c0.2-0.1,0.4-0.1,0.7-0.1
				C38.64,29.38,38.84,29.48,39.14,29.68z M38.64,30.18c-0.2-0.2-0.4-0.2-0.6-0.2s-0.3,0.1-0.4,0.2c-0.1,0.1-0.2,0.3-0.1,0.5
				c0,0.2,0.1,0.4,0.3,0.5c0.2,0.2,0.4,0.2,0.6,0.2s0.3-0.1,0.4-0.2c0.1-0.1,0.2-0.3,0.1-0.5C38.94,30.48,38.84,30.27,38.64,30.18z"
				/>
			<path class="st0" d="M36.04,30.88l-0.7,0.4c-0.1-0.1-0.1-0.1-0.2-0.1s-0.2,0-0.3,0.1c-0.1,0.1-0.2,0.2-0.3,0.3c0,0.1,0,0.1,0,0.2
				c0,0.1,0.1,0.1,0.2,0.3l0.2,0.3c0-0.3,0.1-0.6,0.4-0.8s0.6-0.3,0.9-0.2s0.5,0.3,0.7,0.5c0.3,0.3,0.4,0.7,0.4,1s-0.2,0.6-0.4,0.7
				c-0.3,0.2-0.6,0.2-0.9,0.1l0.2,0.3l-0.5,0.4l-1.4-1.9c-0.2-0.2-0.3-0.4-0.4-0.6c-0.1-0.2-0.1-0.3,0-0.4c0-0.1,0.1-0.3,0.2-0.4
				s0.2-0.3,0.4-0.4c0.3-0.3,0.6-0.4,0.9-0.4C35.64,30.58,35.84,30.68,36.04,30.88L36.04,30.88z M36.54,32.47
				c-0.2-0.2-0.3-0.3-0.5-0.4c-0.2,0-0.3,0-0.4,0.1s-0.2,0.2-0.2,0.4s0.1,0.4,0.2,0.6c0.2,0.2,0.3,0.3,0.5,0.4c0.2,0,0.3,0,0.5-0.1
				c0.1-0.1,0.2-0.2,0.2-0.4C36.74,32.88,36.64,32.67,36.54,32.47z"/>
			<path class="st0" d="M35.14,34.97l-0.7,0.3l-1.3-1.4l0.2,1.9l-0.6,0.3l-0.2-2.7v-0.5c0-0.2,0-0.3,0-0.4c0-0.1,0-0.2,0.1-0.3
				c0-0.1,0.1-0.1,0.2-0.2c0.1-0.1,0.2-0.1,0.3-0.2c0.1-0.1,0.2-0.1,0.4-0.1l0.3,0.5c-0.1,0-0.2,0.1-0.3,0.1
				c-0.1,0.1-0.2,0.2-0.3,0.3c0,0.1,0,0.2,0,0.4L35.14,34.97z"/>
			<path class="st0" d="M29.94,34.58l0.4,0.2c-0.1,0.1-0.2,0.3-0.3,0.4l-0.1,0.1c0,0,0.1,0,0.3,0c0.1,0,0.2,0,0.3,0l-0.1,0.4
				c-0.2-0.1-0.4-0.1-0.5-0.2c0.1,0.2,0.1,0.4,0.1,0.6l-0.4,0.1c0-0.1,0-0.3,0-0.6c0,0-0.1,0.1-0.2,0.1c-0.1,0.1-0.2,0.1-0.3,0.2
				l-0.2-0.4c0.2-0.1,0.3-0.1,0.5-0.2l-0.3-0.3c-0.1-0.1-0.1-0.1-0.1-0.1l0.3-0.3l0.4,0.4C29.84,34.97,29.84,34.77,29.94,34.58z"/>
			<path class="st0" d="M28.24,34.67l0.3,0.3c-0.1,0.1-0.2,0.2-0.3,0.3l-0.1,0.1c0,0,0.1,0,0.3,0.1c0.1,0,0.2,0.1,0.2,0.1l-0.1,0.4
				c-0.2-0.1-0.4-0.2-0.5-0.3c0,0.2,0.1,0.4,0.1,0.6h-0.4c0-0.1,0-0.3,0.1-0.6c0,0-0.1,0-0.2,0.1s-0.3,0.1-0.4,0.2l-0.1-0.4
				c0.2,0,0.4-0.1,0.6-0.1l-0.3-0.3c-0.1-0.1-0.1-0.1-0.1-0.1l0.3-0.2l0.3,0.5C28.04,35.08,28.14,34.88,28.24,34.67z"/>
			<path class="st0" d="M26.54,34.67l0.3,0.3c-0.1,0.1-0.2,0.2-0.4,0.3c-0.1,0-0.1,0.1-0.1,0.1s0.1,0,0.3,0.1c0.1,0,0.2,0.1,0.2,0.1
				l-0.2,0.4c-0.2-0.1-0.3-0.2-0.5-0.3c0,0.2,0,0.4,0,0.6l-0.4-0.1c0-0.1,0.1-0.3,0.1-0.6c0,0-0.1,0-0.2,0.1c-0.1,0-0.3,0.1-0.4,0.1
				l-0.1-0.4c0.2,0,0.4,0,0.6,0l-0.2-0.3c0-0.1-0.1-0.1-0.1-0.2l0.4-0.2l0.2,0.5C26.34,34.97,26.44,34.77,26.54,34.67z"/>
		</g>
		<g>
			<g>
				<g>
					<path class="st0" d="M33.64,22.08c-0.3-0.1-0.7-0.2-1.1-0.2c-0.2,0-0.3,0-0.5,0v3.2l-2-2.6c-0.4,0.2-0.7,0.3-1.1,0.6
						c-0.1,0-0.1,0.1-0.2,0.1l3.1,4.1h1.8L33.64,22.08L33.64,22.08z"/>
				</g>
				<g>
					<path class="st0" d="M32.04,17.58v2.9c0.6,0,1.1,0.1,1.6,0.3v-3.3h-1.6V17.58z"/>
				</g>
				<g>
					<path class="st0" d="M26.34,17.58v5.1c0.2-0.1,0.4-0.2,0.5-0.3c0.3-0.2,0.6-0.4,0.9-0.6l0,0l0,0l0.1-0.1
						c0.4-0.2,0.8-0.4,1.1-0.6L26.34,17.58z"/>
				</g>
				<g>
					<path class="st0" d="M27.04,24.28c-0.2,0.1-0.5,0.3-0.7,0.4v2.6h1.4v-3.5L27.04,24.28z"/>
				</g>
				<g>
					<path class="st0" d="M24.44,25.48v1.9h1.5v-2.4C25.34,25.18,24.84,25.38,24.44,25.48z"/>
				</g>
				<g>
					<path class="st0" d="M25.34,17.58l-4.3,6.4c0.4,0.2,0.8,0.2,1.2,0.2c0.2,0,0.3,0,0.5,0l1.7-2.6v2.1c0.5-0.2,1-0.5,1.5-0.7v-5.5
						h-0.6C25.34,17.48,25.34,17.58,25.34,17.58z"/>
				</g>
				<g>
					<path class="st0" d="M21.14,25.38c-0.3-0.1-0.6-0.3-0.8-0.4l-1.6,2.3h1.9l1.1-1.7C21.64,25.58,21.34,25.48,21.14,25.38z"/>
				</g>
				<g>
					<path class="st0" d="M34.54,21.98c-0.3-0.3-0.6-0.5-0.9-0.7c-0.9-0.4-1.7-0.4-2.6-0.2c-1,0.2-1.9,0.6-2.8,1.1
						c-0.6,0.4-1.2,0.7-1.8,1.1c-1,0.6-2,1.1-3.2,1.4c-1.1,0.2-2.1,0.1-3.1-0.6c0,0.1,0.1,0.1,0.1,0.1c0.3,0.4,0.7,0.6,1.1,0.8
						c0.9,0.3,1.7,0.3,2.6,0.1c1-0.2,2-0.6,2.8-1.2c0.6-0.4,1.3-0.8,1.9-1.2c0.9-0.5,1.9-1,2.9-1.2c0.7-0.1,1.4-0.1,2.1,0.1
						C34.04,21.78,34.34,21.88,34.54,21.98C34.54,22.08,34.54,21.98,34.54,21.98z"/>
				</g>
			</g>
			<g>
				<path class="st0" d="M20.74,28.38c0.2,0.2,0.3,0.4,0.5,0.6c1.8,1.8,4.1,2.7,6.6,2.7s4.9-1,6.6-2.7c1.8-1.8,2.7-4.1,2.7-6.6
					s-1-4.9-2.7-6.6l0,0c-1.8-1.8-4.1-2.7-6.6-2.7s-4.9,1-6.6,2.7s-2.7,4-2.7,6.5c0,1.2,0.2,2.3,0.6,3.4l0.6-0.9
					c-0.2-0.8-0.4-1.6-0.4-2.4c0-4.7,3.8-8.5,8.5-8.5s8.5,3.8,8.5,8.5s-3.8,8.5-8.5,8.5c-1.3,0-2.6-0.3-3.8-0.9
					c-1.1-0.6-2.1-1.4-2.8-2.3L20.74,28.38z"/>
			</g>
		</g>
	</g>
	<path class="st1" d="M53.74,6.18c0.1-0.5,0-0.9-0.1-1.2c-0.1-0.4-0.5-0.7-0.9-0.7c-1,0-1.9,1.8-2,1.9c-0.5,0.9-0.6,1.5-0.3,2
		c0.2,0.3,0.5,0.4,0.7,0.5l-0.4,0.3c-0.4,0.4-1.1,0.4-1.5,0c-0.6-0.5-0.8-1.5-0.9-2.2l-0.1-0.9h-0.3c0,0,0,0.4,0.1,0.9l0.1,0.8
		c0,0.4-0.1,0.7-0.4,1l-1.1,1.1c-0.3,0.3-0.7,0.4-1.1,0.3c-1-0.3-1-1.9-1-2.8l0.1-0.6h-0.3c0,0,0,0.3-0.1,0.6l-0.1,1.1
		c0,0.2-0.1,0.5-0.2,0.7l-0.3,0.7c-0.2,0.5-0.5,0.9-0.8,1.3l-0.1,0.2c-0.2,0.2-0.5,0.3-0.7,0.2s-0.4-0.3-0.5-0.5
		c-0.1-0.8,0-3.1,0-3.1h-0.2h-0.2c0,0.1-0.1,0.4-0.1,0.8c-0.3-0.2-0.8-0.5-1.5-0.6c-0.5,0-1,0.1-1.4,0.5s-0.7,0.9-0.7,1.5
		c0,1.2,0.6,1.6,1.1,1.7c0.1,0,0.2,0,0.3,0c0.3,0,0.5-0.1,0.8-0.2c0.4-0.2,1-0.6,1.4-1.2c0,0.2,0.1,0.4,0.1,0.6
		c-1.3,1.2-3.2,2.6-4.3,2.9c-0.4,0.1-0.8,0.1-1.2-0.1c-0.4-0.2-0.6-0.5-0.8-1c-0.1-0.3-0.2-0.7-0.3-1.1c0.3-0.1,0.6-0.1,0.8-0.2
		c0.2,0,0.3-0.2,0.3-0.3c0-0.2-0.1-0.3-0.2-0.4l-1.1-0.5c0.7-1,3.7-5.8,3.2-9c-0.1-0.4-0.3-0.8-0.7-1c-0.4-0.2-0.8-0.2-1.2,0
		c-1.1,0.5-2.4,1.6-2.2,4.2c0,0,0.2,4,0.7,6.9c-9,1.8-16.7,3.5-22.4,4.9c-0.2-0.9-0.5-2-0.7-3.3c-0.7-3.8-1.2-7.6-1.2-7.7h-0.3
		c0.4,4,0,8.2-0.6,11.6c-3.1,0.8-5.5,1.4-6.9,1.8c-0.5,0.1-1.1,0.3-1.7,0.4l0.1,0.3c0,0,0.6-0.2,1.7-0.4c2.8-0.7,5-0.9,6.6-0.7
		c-0.6,3.2-1.3,5.4-1.3,5.5l0.3,0.1c0,0,0.7-2.3,1.3-5.5c1.4,0.1,2.3,0.5,3,0.9c0.2,0.1,0.3,0.2,0.4,0.3c0.4,1.1,0.9,1.7,1.3,1.9
		l0.3,0.1v-0.3c0,0-0.2-1-1.3-1.9c-0.3-0.7-0.5-1.5-0.8-2.7c5.7-1.4,13.4-3.1,22.4-4.9c0.1,0.4,0.2,0.8,0.3,1.2
		c0.1,0.5,0.5,0.9,0.9,1.2c0.3,0.2,0.6,0.2,0.9,0.2c0.2,0,0.4,0,0.5-0.1c1.2-0.3,3-1.7,4.4-2.9c0.1,0.3,0.3,0.5,0.6,0.5
		c0.1,0,0.2,0,0.2,0c0.3,0,0.6-0.1,0.8-0.4l0.1-0.2c0.4-0.4,0.7-0.9,0.9-1.4l0.3-0.7c0-0.1,0.1-0.2,0.1-0.3c0.1,0.7,0.5,1.2,1.1,1.4
		c0.5,0.1,1.1,0,1.4-0.4l1.1-1.1c0.2-0.2,0.3-0.4,0.4-0.7c0.2,0.4,0.4,0.7,0.6,1c0.5,0.5,1.4,0.5,2,0l0.6-0.6
		c0.9-0.5,1.4-1.1,1.7-1.6c0.2,1.3,1.1,2,1.2,2.1l0.2-0.3C54.84,8.88,53.64,7.88,53.74,6.18z M8.84,18.08c-0.8-0.1-1.6-0.1-2.6,0
		c0.8-0.2,1.7-0.4,2.7-0.7C8.94,17.68,8.94,17.88,8.84,18.08z M13.54,20.88c-0.1-0.1-0.2-0.3-0.4-0.6
		C13.34,20.58,13.54,20.68,13.54,20.88z M10.14,8.98c0.2,1.3,0.4,2.8,0.7,4.3c0.2,1.2,0.5,2.3,0.7,3.3c-0.8,0.2-1.5,0.4-2.2,0.5
		C9.84,14.57,10.14,11.78,10.14,8.98z M12.14,18.58c0.1,0.2,0.1,0.3,0.2,0.5l0,0c-0.7-0.4-1.7-0.8-3.1-1c0-0.3,0.1-0.5,0.1-0.8
		c0.7-0.2,1.5-0.4,2.3-0.6C11.84,17.48,12.04,18.08,12.14,18.58z M35.94,0.68c0.1-0.1,0.3-0.1,0.4-0.1c0.2,0,0.3,0,0.5,0.1
		c0.3,0.2,0.5,0.4,0.5,0.8c0.5,2.9-2.2,7.3-3,8.5c-0.4-2.6-0.5-5.4-0.5-5.4C33.74,2.18,34.94,1.18,35.94,0.68z M34.54,10.78l1,0.4
		l0,0l0,0c-0.3,0.1-0.6,0.1-0.8,0.2C34.64,11.18,34.54,10.98,34.54,10.78z M39.54,11.48c-0.3,0.1-0.6,0.2-0.8,0.1
		c-0.5-0.1-0.8-0.6-0.8-1.3c0-0.5,0.2-0.9,0.6-1.3c0.3-0.3,0.7-0.4,1.2-0.4c0.8,0.1,1.4,0.5,1.5,0.6c0,0.2,0,0.5,0,0.7
		C40.74,10.68,40.04,11.18,39.54,11.48z M51.64,8.48c-0.1,0-0.6-0.1-0.8-0.4c-0.2-0.3-0.1-0.9,0.3-1.6c0.2-0.5,1-1.7,1.7-1.7l0,0
		c0.3,0,0.5,0.2,0.5,0.5c0.1,0.2,0.1,0.5,0.1,1l0,0l0,0C53.34,6.88,52.94,7.68,51.64,8.48z"/>
</g>
</svg>
